HIERARCHY
ROOT joint_Root
{
	OFFSET 0.0 0.0 0.0
	CHANNELS 6 Xposition Yposition Zposition Zrotation Xrotation Yrotation 
	JOINT Hips
	{
		OFFSET 4.5925 91.4895 -427.239
		CHANNELS 6 Xposition Yposition Zposition Zrotation Xrotation Yrotation 
		JOINT Spine
		{
			OFFSET 15.7357 0.0 0.0
			CHANNELS 6 Xposition Yposition Zposition Zrotation Xrotation Yrotation 
			JOINT Chest
			{
				OFFSET 8.98455 -0.406207 0.0
				CHANNELS 6 Xposition Yposition Zposition Zrotation Xrotation Yrotation 
				JOINT Neck
				{
					OFFSET 16.3773 0.0 0.0
					CHANNELS 6 Xposition Yposition Zposition Zrotation Xrotation Yrotation 
					JOINT Head
					{
						OFFSET 6.45672 0.0 0.0
						CHANNELS 6 Xposition Yposition Zposition Zrotation Xrotation Yrotation 
						End Site
						{
							OFFSET 0.0 0.0 0.0
						}
					}
				}
				JOINT Shoulder_L
				{
					OFFSET 12.9942 -0.242716 4.98039
					CHANNELS 6 Xposition Yposition Zposition Zrotation Xrotation Yrotation 
					JOINT UpperArm_L
					{
						OFFSET 5.34809 0.0 0.0
						CHANNELS 6 Xposition Yposition Zposition Zrotation Xrotation Yrotation 
						JOINT LowerArm_L
						{
							OFFSET 24.3286 1.87007e-05 0.0
							CHANNELS 6 Xposition Yposition Zposition Zrotation Xrotation Yrotation 
							JOINT Hand_L
							{
								OFFSET 22.2916 0.0 0.0
								CHANNELS 6 Xposition Yposition Zposition Zrotation Xrotation Yrotation 
								End Site
								{
									OFFSET 0.0 0.0 0.0
								}
							}
						}
					}
				}
				JOINT Shoulder_R
				{
					OFFSET 12.9945 -0.242716 -4.98039
					CHANNELS 6 Xposition Yposition Zposition Zrotation Xrotation Yrotation 
					JOINT UpperArm_R
					{
						OFFSET -5.34813 0.0 0.0
						CHANNELS 6 Xposition Yposition Zposition Zrotation Xrotation Yrotation 
						JOINT LowerArm_R
						{
							OFFSET -24.3289 0.000322201 0.0
							CHANNELS 6 Xposition Yposition Zposition Zrotation Xrotation Yrotation 
							JOINT Hand_R
							{
								OFFSET -22.2915 -0.000108084 0.0
								CHANNELS 6 Xposition Yposition Zposition Zrotation Xrotation Yrotation 
								End Site
								{
									OFFSET 0.0 0.0 0.0
								}
							}
						}
					}
				}
			}
		}
		JOINT UpperLeg_L
		{
			OFFSET -2.19248 -6.46944 0.0
			CHANNELS 6 Xposition Yposition Zposition Zrotation Xrotation Yrotation 
			JOINT LowerLeg_L
			{
				OFFSET 39.0811 0.0 -1.23785e-05
				CHANNELS 6 Xposition Yposition Zposition Zrotation Xrotation Yrotation 
				JOINT Foot_L
				{
					OFFSET 40.9854 0.0 -1.26872e-05
					CHANNELS 6 Xposition Yposition Zposition Zrotation Xrotation Yrotation 
					JOINT Toes_L
					{
						OFFSET 11.7543 0.0 0.0
						CHANNELS 6 Xposition Yposition Zposition Zrotation Xrotation Yrotation 
						End Site
						{
							OFFSET 0.0 0.0 0.0
						}
					}
				}
			}
		}
		JOINT UpperLeg_R
		{
			OFFSET -2.19251 6.46944 0.0
			CHANNELS 6 Xposition Yposition Zposition Zrotation Xrotation Yrotation 
			JOINT LowerLeg_R
			{
				OFFSET -39.0811 -0.00228153 -0.0401928
				CHANNELS 6 Xposition Yposition Zposition Zrotation Xrotation Yrotation 
				JOINT Foot_R
				{
					OFFSET -40.9854 0.0 0.0
					CHANNELS 6 Xposition Yposition Zposition Zrotation Xrotation Yrotation 
					JOINT Toes_R
					{
						OFFSET -11.7543 0.0 0.0
						CHANNELS 6 Xposition Yposition Zposition Zrotation Xrotation Yrotation 
						End Site
						{
							OFFSET 0.0 0.0 0.0
						}
					}
				}
			}
		}
	}
}
MOTION
Frames:	8
Frame Time:	0.0333333
0.000000 0.000000 0.000000 0.000000 0.000000 -0.000000 -0.865678 90.526600 3.833890 89.524900 -3.277360 10.619500 15.735700 0.000005 -0.000001 88.700900 83.072100 -89.056300 8.984550 -0.406207 -0.000000 6.085410 -0.308063 -0.693543 16.377300 -0.000001 -0.000001 -0.047086 -3.737380 1.132940 6.456720 -0.000001 -0.000000 -17.354900 -3.221820 -1.071120 12.994200 -0.242716 4.980390 -91.293400 4.672760 -74.509100 5.348090 -0.000007 -0.000001 -63.732500 34.573800 -11.670000 24.328600 0.000019 0.000005 6.487200 23.740400 -15.771800 22.291600 -0.000001 0.000005 10.261100 5.222720 2.143170 12.994500 -0.242716 -4.980390 88.835400 8.765840 -82.401800 -5.348130 -0.000001 -0.000004 -65.268300 29.874500 -6.760740 -24.328900 0.000322 -0.000009 1.820790 6.451320 -15.806400 -22.291500 -0.000108 -0.000004 12.912700 5.359850 -1.675050 -2.192480 -6.469440 -0.000000 -174.360000 -10.817000 3.886040 39.081100 -0.000007 -0.000012 -0.162641 0.284278 29.775000 40.985400 -0.000006 -0.000013 -0.540998 4.027760 -72.737700 11.754300 -0.000000 0.000003 -0.000092 -0.000954 -16.614200 -2.192510 6.469440 -0.000001 173.341000 18.169600 -174.819000 -39.081100 -0.002282 -0.040193 -0.197908 0.362989 29.000700 -40.985400 0.000008 0.000006 1.905490 10.936400 -72.817500 -11.754300 -0.000006 -0.000006 -0.003344 -0.044437 -18.380400
0.000000 0.000000 0.000000 0.000000 0.000000 -0.000000 -0.856976 90.521000 3.835950 89.486500 -3.330120 10.639700 15.735700 0.000005 -0.000001 89.026800 83.026700 -89.348200 8.984550 -0.406207 -0.000000 6.178050 -0.231762 -0.629416 16.377300 -0.000001 -0.000001 0.065784 -3.768860 1.384790 6.456720 -0.000001 -0.000000 -17.389500 -3.187730 -1.370750 12.994200 -0.242716 4.980390 -91.368800 4.847900 -74.212700 5.348090 -0.000007 -0.000001 -63.295800 33.774200 -11.314500 24.328600 0.000019 0.000005 6.488660 23.575400 -15.874000 22.291600 -0.000001 0.000005 10.090700 5.218130 2.260570 12.994500 -0.242716 -4.980390 88.800800 8.765790 -82.178800 -5.348130 -0.000001 -0.000004 -64.592100 28.319700 -6.457170 -24.328900 0.000322 -0.000009 1.748150 6.050380 -16.158600 -22.291500 -0.000108 -0.000004 12.999400 5.361530 -1.726310 -2.192480 -6.469440 -0.000000 -174.299000 -10.876500 3.895930 39.081100 -0.000007 -0.000012 -0.164775 0.287447 29.823100 40.985400 -0.000006 -0.000013 -0.526937 4.063690 -72.767900 11.754300 -0.000000 0.000003 -0.000088 -0.000919 -16.612900 -2.192510 6.469440 -0.000001 173.399000 18.045800 -174.818000 -39.081100 -0.002282 -0.040193 -0.197794 0.362658 29.009100 -40.985400 0.000008 0.000006 1.890790 10.904900 -72.815800 -11.754300 -0.000006 -0.000006 -0.003423 -0.045294 -18.415300
0.000000 0.000000 0.000000 0.000000 0.000000 -0.000000 -0.839194 90.515400 3.831220 89.481400 -3.344410 10.696100 15.735700 0.000005 -0.000001 89.285700 82.947800 -89.584700 8.984550 -0.406207 -0.000000 6.336920 -0.171589 -0.587776 16.377300 -0.000001 -0.000001 0.074643 -3.865480 1.793080 6.456720 -0.000001 -0.000000 -17.236000 -3.106230 -1.611890 12.994200 -0.242716 4.980390 -91.517700 5.245070 -73.836800 5.348090 -0.000007 -0.000001 -62.582900 33.204500 -11.196700 24.328600 0.000019 0.000005 6.601770 23.426900 -16.230200 22.291600 -0.000001 0.000005 10.083000 5.216120 2.311700 12.994500 -0.242716 -4.980390 88.721400 8.930240 -81.818100 -5.348130 -0.000001 -0.000004 -63.714100 26.838900 -6.338390 -24.328900 0.000322 -0.000009 1.689330 5.605910 -16.809800 -22.291500 -0.000108 -0.000004 13.247700 5.363150 -1.775960 -2.192480 -6.469440 -0.000000 -174.289000 -10.893100 3.926490 39.081100 -0.000007 -0.000012 -0.165639 0.288465 29.865000 40.985400 -0.000006 -0.000013 -0.516407 4.058750 -72.782800 11.754300 -0.000000 0.000003 -0.000087 -0.000910 -16.612600 -2.192510 6.469440 -0.000001 173.356000 18.103000 -174.773000 -39.081100 -0.002282 -0.040193 -0.196846 0.360465 29.041700 -40.985400 0.000008 0.000006 1.900870 10.965900 -72.825200 -11.754300 -0.000006 -0.000006 -0.003390 -0.044940 -18.400900
0.000000 0.000000 0.000000 0.000000 0.000000 -0.000000 -0.814309 90.500900 3.827800 89.480000 -3.290820 10.849100 15.735700 0.000005 -0.000001 89.480700 82.823800 -89.770300 8.984550 -0.406207 -0.000000 6.585550 -0.126691 -0.571311 16.377300 -0.000001 -0.000001 0.137483 -3.975700 2.065030 6.456720 -0.000001 -0.000000 -16.938800 -3.224010 -1.383490 12.994200 -0.242716 4.980390 -91.683700 5.733380 -73.604100 5.348090 -0.000007 -0.000001 -61.934900 32.468100 -11.152100 24.328600 0.000019 0.000005 6.767580 23.341700 -16.673300 22.291600 -0.000001 0.000005 10.314800 5.218760 2.244750 12.994500 -0.242716 -4.980390 88.614700 9.240240 -81.435800 -5.348130 -0.000001 -0.000004 -62.775900 25.156600 -6.320950 -24.328900 0.000322 -0.000009 1.666370 5.258930 -17.620500 -22.291500 -0.000108 -0.000004 13.300700 5.368410 -1.937560 -2.192480 -6.469440 -0.000000 -174.301000 -10.804900 4.032230 39.081100 -0.000007 -0.000012 -0.164203 0.285025 29.946400 40.985400 -0.000006 -0.000013 -0.503032 4.018500 -72.826000 11.754300 -0.000000 0.000003 -0.000088 -0.000920 -16.613000 -2.192510 6.469440 -0.000001 173.254000 18.180900 -174.629000 -39.081100 -0.002282 -0.040193 -0.200205 0.365504 29.108800 -40.985400 0.000008 0.000006 1.898310 11.012700 -72.859200 -11.754300 -0.000006 -0.000006 -0.003399 -0.045041 -18.405000
0.000000 0.000000 0.000000 0.000000 0.000000 -0.000000 -0.782127 90.482300 3.830960 89.479400 -3.234290 11.077200 15.735700 0.000005 -0.000001 89.706200 82.660800 -89.988700 8.984550 -0.406207 -0.000000 6.911970 -0.072898 -0.560029 16.377300 -0.000001 -0.000001 0.195148 -4.062710 2.238890 6.456720 -0.000001 -0.000000 -16.465900 -3.409410 -0.933085 12.994200 -0.242716 4.980390 -91.811300 6.078390 -73.372400 5.348090 -0.000007 -0.000001 -61.442100 32.101600 -11.351100 24.328600 0.000019 0.000005 6.855570 22.947200 -17.137800 22.291600 -0.000001 0.000005 10.528800 5.215920 2.316870 12.994500 -0.242716 -4.980390 88.498700 9.540710 -81.014500 -5.348130 -0.000001 -0.000004 -61.952400 23.026700 -6.430950 -24.328900 0.000322 -0.000009 1.540770 4.620230 -18.478000 -22.291500 -0.000108 -0.000004 13.217400 5.378010 -2.236240 -2.192480 -6.469440 -0.000000 -174.266000 -10.817700 4.224750 39.081100 -0.000007 -0.000012 -0.163488 0.282738 30.038200 40.985400 -0.000006 -0.000013 -0.458072 4.079460 -72.882600 11.754300 -0.000000 0.000003 -0.000089 -0.000932 -16.613400 -2.192510 6.469440 -0.000001 173.157000 18.151700 -174.416000 -39.081100 -0.002282 -0.040193 -0.200931 0.365635 29.186900 -40.985400 0.000008 0.000006 1.872760 10.985200 -72.903400 -11.754300 -0.000006 -0.000006 -0.003371 -0.044729 -18.392300
0.000000 0.000000 0.000000 0.000000 0.000000 -0.000000 -0.737083 90.466000 3.820910 89.480900 -3.159550 11.262800 15.735700 0.000005 -0.000001 89.589300 82.487700 -89.866200 8.984550 -0.406207 -0.000000 7.258070 -0.106071 -0.546561 16.377300 -0.000001 -0.000001 0.208438 -4.076040 2.334490 6.456720 -0.000001 -0.000000 -15.891600 -3.512110 -0.440996 12.994200 -0.242716 4.980390 -91.845400 6.117500 -73.177800 5.348090 -0.000007 -0.000001 -61.562100 31.370600 -11.555000 24.328600 0.000019 0.000005 6.967680 22.696900 -17.574500 22.291600 -0.000001 0.000005 10.511100 5.229380 1.971290 12.994500 -0.242716 -4.980390 88.408800 9.769440 -80.702900 -5.348130 -0.000001 -0.000004 -61.295400 20.306000 -6.686090 -24.328900 0.000322 -0.000009 1.402540 4.002070 -19.345300 -22.291500 -0.000108 -0.000004 12.959400 5.381420 -2.342980 -2.192480 -6.469440 -0.000000 -174.271000 -10.755600 4.351910 39.081100 -0.000007 -0.000012 -0.163989 0.282525 30.132800 40.985400 -0.000006 -0.000013 -0.408821 4.117030 -72.929200 11.754300 -0.000000 0.000003 -0.000080 -0.000848 -16.610200 -2.192510 6.469440 -0.000001 173.065000 18.134400 -174.259000 -39.081100 -0.002282 -0.040193 -0.201798 0.365990 29.266600 -40.985400 0.000008 0.000006 1.833960 10.945400 -72.933000 -11.754300 -0.000006 -0.000006 -0.003451 -0.045602 -18.427800
0.000000 0.000000 0.000000 0.000000 0.000000 -0.000000 -0.675639 90.463700 3.777850 89.493000 -3.060420 11.405500 15.735700 0.000005 -0.000001 89.088900 82.347400 -89.348300 8.984550 -0.406207 -0.000000 7.536780 -0.241909 -0.502356 16.377300 -0.000001 -0.000001 0.321054 -4.016700 2.356840 6.456720 -0.000001 -0.000000 -15.293500 -3.528770 -0.072817 12.994200 -0.242716 4.980390 -91.857700 6.080520 -72.975700 5.348090 -0.000007 -0.000001 -62.198300 29.640200 -11.380300 24.328600 0.000019 0.000005 7.299640 22.653900 -18.395900 22.291600 -0.000001 0.000005 10.346800 5.247780 1.490770 12.994500 -0.242716 -4.980390 88.335700 9.915760 -80.422800 -5.348130 -0.000001 -0.000004 -60.653600 17.198000 -7.020510 -24.328900 0.000322 -0.000009 1.313030 3.564220 -20.255000 -22.291500 -0.000108 -0.000004 12.607700 5.382690 -2.382890 -2.192480 -6.469440 -0.000000 -174.324000 -10.681700 4.424530 39.081100 -0.000007 -0.000012 -0.161100 0.277007 30.181400 40.985400 -0.000006 -0.000013 -0.361416 4.101370 -72.923400 11.754300 -0.000000 0.000003 -0.000091 -0.000950 -16.614100 -2.192510 6.469440 -0.000001 172.975000 18.147300 -174.146000 -39.081100 -0.002282 -0.040193 -0.202279 0.366340 29.300500 -40.985400 0.000008 0.000006 1.779900 10.880900 -72.914100 -11.754300 -0.000006 -0.000006 -0.003285 -0.043785 -18.353900
0.000000 0.000000 0.000000 0.000000 0.000000 -0.000000 -0.601129 90.457300 3.733390 89.525100 -3.060220 11.538900 15.735700 0.000005 -0.000001 88.805300 82.232600 -89.028800 8.984550 -0.406207 -0.000000 7.764810 -0.322570 -0.424686 16.377300 -0.000001 -0.000001 0.535942 -3.984260 2.408780 6.456720 -0.000001 -0.000000 -14.721600 -3.435350 -0.015028 12.994200 -0.242716 4.980390 -91.868600 6.030810 -72.749100 5.348090 -0.000007 -0.000001 -63.193100 26.508900 -11.001400 24.328600 0.000019 0.000005 7.862870 22.945600 -19.505600 22.291600 -0.000001 0.000005 9.550450 5.266870 0.980297 12.994500 -0.242716 -4.980390 88.275100 9.901180 -80.066300 -5.348130 -0.000001 -0.000004 -59.864500 14.139300 -7.649720 -24.328900 0.000322 -0.000009 1.063600 2.815660 -20.722900 -22.291500 -0.000108 -0.000004 12.275000 5.385230 -2.463550 -2.192480 -6.469440 -0.000000 -174.388000 -10.699300 4.500120 39.081100 -0.000007 -0.000012 -0.160351 0.275133 30.234400 40.985400 -0.000006 -0.000013 -0.302031 4.088330 -72.928200 11.754300 -0.000000 0.000003 -0.000085 -0.000892 -16.611900 -2.192510 6.469440 -0.000001 172.876000 18.069600 -174.093000 -39.081100 -0.002282 -0.040193 -0.203829 0.367861 29.382900 -40.985400 0.000008 0.000006 1.726520 10.847800 -72.903400 -11.754300 -0.000006 -0.000006 -0.003291 -0.043850 -18.356500
